<svg xmlns="http://www.w3.org/2000/svg" xmlns:xlink="http://www.w3.org/1999/xlink" width="131" zoomAndPan="magnify" viewBox="0 0 98.25 95.249998" height="127" preserveAspectRatio="xMidYMid meet" version="1.0"><defs><clipPath id="36b3251aa5"><path d="M 1 1 L 48.378906 1 L 48.378906 93 L 1 93 Z M 1 1 " clip-rule="nonzero"/></clipPath><clipPath id="97a853ef22"><path d="M 48.328125 1 L 96 1 L 96 93 L 48.328125 93 Z M 48.328125 1 " clip-rule="nonzero"/></clipPath></defs><g clip-path="url(#36b3251aa5)"><path fill="#ffffff" d="M 23.539062 60.101562 C 20.582031 63.132812 15.980469 58.644531 18.933594 55.605469 C 21.890625 52.578125 26.492188 57.070312 23.539062 60.101562 Z M 90.683594 55.980469 C 89.410156 61.988281 86.84375 67.785156 82.984375 72.917969 C 85.566406 75.90625 81.75 80.183594 78.488281 78.015625 C 75.152344 81.253906 71.417969 83.851562 67.453125 85.804688 C 68.796875 91.34375 60.957031 94.078125 58.496094 89.011719 C 55.441406 89.753906 52.289062 90.175781 49.085938 90.234375 C 47.429688 94.25 41.484375 93.726562 40.515625 89.539062 C 36.238281 88.753906 31.90625 87.261719 28.125 85.285156 C 24.429688 88.339844 19.042969 84.761719 20.507812 80.191406 C 15.796875 76.253906 12.015625 71.402344 9.339844 65.9375 C 4.496094 66.832031 1.996094 60.191406 6.292969 57.699219 C 5.117188 53.148438 4.671875 48.363281 5.058594 43.519531 C 0.0351562 41.972656 1.300781 34.191406 6.75 34.503906 C 9.324219 25.878906 14.363281 18.636719 20.878906 13.335938 C 18.046875 7.804688 25.226562 2.308594 29.796875 6.761719 C 30.019531 6.980469 30.210938 7.210938 30.390625 7.449219 C 37.289062 4.320312 45.027344 2.980469 52.894531 3.839844 C 54.359375 0 60.136719 1.132812 60.054688 5.230469 C 62.132812 5.8125 64.175781 6.554688 66.164062 7.457031 C 68.132812 5.363281 71.527344 7.269531 70.890625 9.957031 C 72.015625 10.644531 73.125 11.40625 74.210938 12.21875 C 76.785156 14.140625 79.175781 16.382812 81.253906 18.808594 C 83.507812 17.949219 85.640625 20.65625 84.183594 22.640625 C 85.683594 24.851562 86.957031 27.167969 88.011719 29.570312 C 91.769531 29.015625 93.613281 34.191406 90.261719 36.09375 C 91.179688 39.671875 91.636719 43.347656 91.628906 47.023438 C 96.785156 48.207031 95.972656 55.90625 90.683594 55.980469 Z M 79.863281 22.195312 C 78.148438 22.410156 76.4375 22.707031 74.738281 23.0625 C 74.8125 23.851562 74.722656 24.652344 74.464844 25.40625 C 78.316406 26.90625 82.058594 28.800781 85.617188 31.078125 L 86.519531 30.175781 C 85.941406 28.859375 85.292969 27.566406 84.589844 26.316406 C 84.0625 25.382812 83.488281 24.460938 82.886719 23.570312 C 81.726562 23.917969 80.378906 23.335938 79.863281 22.195312 Z M 44.679688 41.523438 C 49.730469 43.347656 54.613281 45.828125 59.199219 48.984375 C 59.390625 48.816406 59.597656 48.675781 59.804688 48.5625 C 58.058594 43.742188 55.707031 39.089844 52.742188 34.746094 C 51.832031 35.140625 50.757812 35.050781 49.914062 34.464844 C 47.925781 35.976562 46.011719 37.625 44.183594 39.40625 C 44.582031 40.050781 44.746094 40.796875 44.679688 41.523438 Z M 63.703125 22.269531 C 63.796875 21.878906 63.9375 21.492188 64.117188 21.125 C 59.257812 18.03125 54.066406 15.671875 48.710938 14.046875 C 47.542969 15.613281 46.460938 17.21875 45.457031 18.851562 C 46.230469 19.386719 46.824219 20.175781 47.105469 21.152344 C 52.660156 20.8125 58.242188 21.183594 63.703125 22.269531 Z M 63.546875 23.824219 C 58.183594 22.742188 52.710938 22.367188 47.261719 22.707031 C 47.207031 23.4375 46.964844 24.148438 46.550781 24.785156 C 47.992188 26.242188 49.347656 27.75 50.625 29.304688 C 51.632812 28.957031 52.828125 29.171875 53.628906 29.984375 C 56.851562 27.957031 60.21875 26.234375 63.679688 24.828125 C 63.605469 24.503906 63.5625 24.164062 63.546875 23.824219 Z M 38.769531 23.824219 C 28.695312 25.84375 19.035156 30.367188 10.773438 37.351562 C 10.96875 37.824219 11.085938 38.328125 11.113281 38.835938 C 20.085938 37.160156 29.316406 37.394531 38.238281 39.585938 C 38.390625 39.304688 38.578125 39.042969 38.8125 38.808594 C 39.960938 37.632812 41.757812 37.460938 43.089844 38.304688 C 44.953125 36.492188 46.898438 34.8125 48.917969 33.269531 C 48.472656 32.277344 48.605469 31.078125 49.339844 30.207031 C 48.132812 28.734375 46.839844 27.300781 45.476562 25.917969 C 43.15625 27.601562 39.714844 26.515625 38.769531 23.824219 Z M 61.296875 48.089844 C 61.839844 48.03125 62.386719 48.097656 62.917969 48.273438 C 65.742188 42.160156 67.539062 35.695312 68.28125 29.140625 C 66.636719 28.882812 65.054688 27.789062 64.234375 26.285156 C 60.847656 27.660156 57.5625 29.339844 54.414062 31.332031 C 54.621094 32.152344 54.472656 33.039062 53.96875 33.757812 C 57.046875 38.269531 59.492188 43.089844 61.296875 48.089844 Z M 64.265625 49.066406 C 64.640625 49.40625 64.929688 49.804688 65.136719 50.226562 C 68 48.984375 70.78125 47.527344 73.464844 45.847656 C 73.140625 40.167969 72.058594 34.539062 70.203125 29.105469 C 70.085938 29.132812 69.972656 29.148438 69.855469 29.164062 C 69.085938 35.996094 67.222656 42.726562 64.265625 49.066406 Z M 65.136719 53.59375 C 67.570312 55.722656 69.804688 58 71.84375 60.390625 C 72.089844 60.285156 72.355469 60.226562 72.628906 60.210938 C 73.355469 56.046875 73.65625 51.832031 73.539062 47.632812 C 70.949219 49.207031 68.273438 50.582031 65.515625 51.757812 C 65.542969 52.386719 65.417969 53.015625 65.136719 53.59375 Z M 74.964844 44.886719 C 77.578125 43.140625 80.085938 41.183594 82.453125 39.007812 C 79.730469 34.976562 76.496094 31.183594 72.84375 27.832031 C 72.480469 28.148438 72.089844 28.410156 71.675781 28.617188 C 73.472656 33.898438 74.574219 39.363281 74.964844 44.886719 Z M 83.605469 37.921875 C 84.433594 37.128906 85.246094 36.308594 86.03125 35.457031 C 85.3125 34.703125 84.898438 33.652344 85.054688 32.550781 C 81.59375 30.316406 77.96875 28.453125 74.226562 26.980469 C 77.777344 30.300781 80.933594 34 83.605469 37.921875 Z M 69.441406 11.796875 C 69.773438 13.882812 70.003906 15.976562 70.128906 18.070312 C 71.984375 18.394531 73.679688 19.769531 74.375 21.546875 C 76.136719 21.175781 77.910156 20.871094 79.691406 20.644531 C 79.746094 20.355469 79.863281 20.066406 80.03125 19.808594 C 77.207031 16.480469 73.84375 13.609375 70.121094 11.316406 C 69.914062 11.515625 69.691406 11.679688 69.441406 11.796875 Z M 59.375 7.300781 C 62.394531 10.769531 64.980469 14.480469 67.132812 18.371094 C 67.59375 18.1875 68.074219 18.070312 68.570312 18.023438 C 68.449219 16.027344 68.222656 14.046875 67.910156 12.070312 C 66.363281 11.90625 65.226562 10.382812 65.484375 8.859375 C 63.636719 8.023438 61.710938 7.316406 59.707031 6.746094 C 59.605469 6.9375 59.5 7.128906 59.375 7.300781 Z M 49.730469 12.730469 C 55.035156 14.394531 60.175781 16.765625 65.003906 19.835938 L 65.78125 19.125 C 63.6875 15.332031 61.171875 11.722656 58.242188 8.351562 C 56.808594 9.1875 55.09375 8.890625 53.953125 7.914062 Z M 31.144531 8.851562 C 31.261719 9.164062 31.34375 9.488281 31.402344 9.816406 C 37.03125 9.894531 42.660156 10.703125 48.125 12.261719 L 52.984375 6.664062 C 52.800781 6.273438 52.695312 5.851562 52.660156 5.398438 C 45.335938 4.636719 37.933594 5.792969 31.144531 8.851562 Z M 30.945312 13.1875 C 34.101562 14.859375 37.148438 16.804688 40.042969 19.039062 C 41.203125 18.046875 42.710938 17.816406 44.042969 18.1875 C 44.996094 16.625 46.011719 15.089844 47.113281 13.59375 C 41.988281 12.1875 36.726562 11.449219 31.453125 11.375 C 31.394531 11.996094 31.21875 12.609375 30.945312 13.1875 Z M 8.320312 34.878906 L 9.925781 36.027344 C 18.378906 28.925781 28.246094 24.339844 38.519531 22.285156 C 38.539062 21.582031 38.71875 20.878906 39.066406 20.25 C 36.210938 18.046875 33.207031 16.125 30.085938 14.496094 C 27.917969 16.953125 24.082031 17.027344 21.816406 14.652344 C 15.433594 19.902344 10.597656 27.292969 8.320312 34.878906 Z M 38.511719 43.246094 C 38.042969 42.609375 37.816406 41.847656 37.835938 41.085938 C 28.984375 38.917969 19.8125 38.726562 10.921875 40.449219 C 10.332031 42.425781 8.503906 43.644531 6.609375 43.71875 C 6.253906 48.3125 6.664062 52.847656 7.765625 57.171875 C 12.558594 56.34375 15.027344 62.867188 10.804688 65.382812 C 13.320312 70.492188 16.855469 75.042969 21.234375 78.769531 C 21.898438 77.867188 22.882812 77.1875 24.101562 76.941406 C 25.472656 64.878906 30.277344 53.121094 38.511719 43.246094 Z M 29.5625 80.011719 C 41.59375 75.160156 52.355469 66.160156 59.324219 54.9375 C 57.875 53.800781 57.460938 51.796875 58.242188 50.21875 C 53.796875 47.171875 49.066406 44.769531 44.175781 43.007812 C 43.238281 44.519531 41.238281 45.042969 39.695312 44.257812 C 31.714844 53.828125 27.046875 65.199219 25.664062 76.882812 C 27.394531 77.097656 28.976562 78.355469 29.5625 80.011719 Z M 61.933594 55.738281 C 61.527344 55.761719 61.121094 55.730469 60.730469 55.621094 C 53.53125 67.289062 42.355469 76.601562 29.84375 81.574219 C 29.855469 82.511719 29.605469 83.355469 29.167969 84.066406 C 32.617188 85.839844 36.542969 87.1875 40.425781 87.933594 C 41.144531 82.3125 49.605469 83 49.40625 88.671875 C 52.347656 88.585938 55.242188 88.199219 58.058594 87.519531 C 57.785156 85.027344 59.539062 82.46875 62.332031 82.1875 C 64.078125 73.445312 63.9375 64.421875 61.933594 55.738281 Z M 64.183594 82.371094 C 67.578125 76.90625 70.046875 71.039062 71.601562 64.984375 C 70.328125 64.296875 69.898438 62.609375 70.648438 61.402344 C 68.679688 59.082031 66.527344 56.890625 64.175781 54.835938 C 63.945312 55.035156 63.695312 55.199219 63.429688 55.339844 C 65.484375 64.191406 65.648438 73.398438 63.902344 82.304688 C 63.992188 82.3125 64.09375 82.335938 64.183594 82.371094 Z M 78.199219 72.519531 C 76.851562 69.984375 75.320312 67.519531 73.605469 65.160156 C 73.449219 65.210938 73.289062 65.25 73.132812 65.265625 C 71.5625 71.460938 69.042969 77.46875 65.59375 83.066406 L 66.800781 84.339844 C 70.691406 82.410156 74.269531 79.886719 77.398438 76.847656 C 76.601562 75.441406 76.898438 73.585938 78.199219 72.519531 Z M 89.085938 55.714844 C 85.988281 54.605469 85.054688 50.398438 87.554688 48.105469 C 86.355469 45.457031 84.9375 42.847656 83.324219 40.332031 C 80.714844 42.699219 77.953125 44.820312 75.0625 46.691406 C 75.261719 51.328125 74.953125 55.988281 74.144531 60.589844 C 75.394531 61.359375 75.726562 63.082031 74.863281 64.25 C 76.628906 66.683594 78.207031 69.214844 79.589844 71.832031 C 80.277344 71.667969 81.007812 71.722656 81.667969 71.988281 C 85.152344 67.34375 87.804688 61.632812 89.085938 55.714844 Z M 90.03125 46.945312 C 90.03125 43.394531 89.582031 39.910156 88.722656 36.550781 C 88.242188 36.574219 87.769531 36.5 87.347656 36.335938 C 86.421875 37.34375 85.460938 38.3125 84.484375 39.25 C 86.15625 41.839844 87.628906 44.519531 88.878906 47.261719 C 89.25 47.105469 89.640625 46.996094 90.03125 46.945312 Z M 82.183594 58.734375 C 80.039062 58.140625 79.136719 61.410156 81.28125 62.003906 C 83.414062 62.601562 84.324219 59.332031 82.183594 58.734375 Z M 49.871094 56.765625 C 52.636719 57.203125 53.304688 52.992188 50.542969 52.550781 C 47.777344 52.113281 47.105469 56.328125 49.871094 56.765625 Z M 50.25 74.53125 C 46.75 73.5625 45.269531 78.902344 48.777344 79.871094 C 52.28125 80.839844 53.753906 75.5 50.25 74.53125 Z M 33.8125 29.105469 C 30.863281 28.289062 29.613281 32.789062 32.570312 33.609375 C 35.515625 34.421875 36.757812 29.917969 33.8125 29.105469 Z M 33.8125 29.105469 " fill-opacity="1" fill-rule="nonzero"/></g><g clip-path="url(#97a853ef22)"><path fill="#b2d12e" d="M 23.539062 60.101562 C 20.582031 63.132812 15.980469 58.644531 18.933594 55.605469 C 21.890625 52.578125 26.492188 57.070312 23.539062 60.101562 Z M 90.683594 55.980469 C 89.410156 61.988281 86.84375 67.785156 82.984375 72.917969 C 85.566406 75.90625 81.75 80.183594 78.488281 78.015625 C 75.152344 81.253906 71.417969 83.851562 67.453125 85.804688 C 68.796875 91.34375 60.957031 94.078125 58.496094 89.011719 C 55.441406 89.753906 52.289062 90.175781 49.085938 90.234375 C 47.429688 94.25 41.484375 93.726562 40.515625 89.539062 C 36.238281 88.753906 31.90625 87.261719 28.125 85.285156 C 24.429688 88.339844 19.042969 84.761719 20.507812 80.191406 C 15.796875 76.253906 12.015625 71.402344 9.339844 65.9375 C 4.496094 66.832031 1.996094 60.191406 6.292969 57.699219 C 5.117188 53.148438 4.671875 48.363281 5.058594 43.519531 C 0.0351562 41.972656 1.300781 34.191406 6.75 34.503906 C 9.324219 25.878906 14.363281 18.636719 20.878906 13.335938 C 18.046875 7.804688 25.226562 2.308594 29.796875 6.761719 C 30.019531 6.980469 30.210938 7.210938 30.390625 7.449219 C 37.289062 4.320312 45.027344 2.980469 52.894531 3.839844 C 54.359375 0 60.136719 1.132812 60.054688 5.230469 C 62.132812 5.8125 64.175781 6.554688 66.164062 7.457031 C 68.132812 5.363281 71.527344 7.269531 70.890625 9.957031 C 72.015625 10.644531 73.125 11.40625 74.210938 12.21875 C 76.785156 14.140625 79.175781 16.382812 81.253906 18.808594 C 83.507812 17.949219 85.640625 20.65625 84.183594 22.640625 C 85.683594 24.851562 86.957031 27.167969 88.011719 29.570312 C 91.769531 29.015625 93.613281 34.191406 90.261719 36.09375 C 91.179688 39.671875 91.636719 43.347656 91.628906 47.023438 C 96.785156 48.207031 95.972656 55.90625 90.683594 55.980469 Z M 79.863281 22.195312 C 78.148438 22.410156 76.4375 22.707031 74.738281 23.0625 C 74.8125 23.851562 74.722656 24.652344 74.464844 25.40625 C 78.316406 26.90625 82.058594 28.800781 85.617188 31.078125 L 86.519531 30.175781 C 85.941406 28.859375 85.292969 27.566406 84.589844 26.316406 C 84.0625 25.382812 83.488281 24.460938 82.886719 23.570312 C 81.726562 23.917969 80.378906 23.335938 79.863281 22.195312 Z M 44.679688 41.523438 C 49.730469 43.347656 54.613281 45.828125 59.199219 48.984375 C 59.390625 48.816406 59.597656 48.675781 59.804688 48.5625 C 58.058594 43.742188 55.707031 39.089844 52.742188 34.746094 C 51.832031 35.140625 50.757812 35.050781 49.914062 34.464844 C 47.925781 35.976562 46.011719 37.625 44.183594 39.40625 C 44.582031 40.050781 44.746094 40.796875 44.679688 41.523438 Z M 63.703125 22.269531 C 63.796875 21.878906 63.9375 21.492188 64.117188 21.125 C 59.257812 18.03125 54.066406 15.671875 48.710938 14.046875 C 47.542969 15.613281 46.460938 17.21875 45.457031 18.851562 C 46.230469 19.386719 46.824219 20.175781 47.105469 21.152344 C 52.660156 20.8125 58.242188 21.183594 63.703125 22.269531 Z M 63.546875 23.824219 C 58.183594 22.742188 52.710938 22.367188 47.261719 22.707031 C 47.207031 23.4375 46.964844 24.148438 46.550781 24.785156 C 47.992188 26.242188 49.347656 27.75 50.625 29.304688 C 51.632812 28.957031 52.828125 29.171875 53.628906 29.984375 C 56.851562 27.957031 60.21875 26.234375 63.679688 24.828125 C 63.605469 24.503906 63.5625 24.164062 63.546875 23.824219 Z M 38.769531 23.824219 C 28.695312 25.84375 19.035156 30.367188 10.773438 37.351562 C 10.96875 37.824219 11.085938 38.328125 11.113281 38.835938 C 20.085938 37.160156 29.316406 37.394531 38.238281 39.585938 C 38.390625 39.304688 38.578125 39.042969 38.8125 38.808594 C 39.960938 37.632812 41.757812 37.460938 43.089844 38.304688 C 44.953125 36.492188 46.898438 34.8125 48.917969 33.269531 C 48.472656 32.277344 48.605469 31.078125 49.339844 30.207031 C 48.132812 28.734375 46.839844 27.300781 45.476562 25.917969 C 43.15625 27.601562 39.714844 26.515625 38.769531 23.824219 Z M 61.296875 48.089844 C 61.839844 48.03125 62.386719 48.097656 62.917969 48.273438 C 65.742188 42.160156 67.539062 35.695312 68.28125 29.140625 C 66.636719 28.882812 65.054688 27.789062 64.234375 26.285156 C 60.847656 27.660156 57.5625 29.339844 54.414062 31.332031 C 54.621094 32.152344 54.472656 33.039062 53.96875 33.757812 C 57.046875 38.269531 59.492188 43.089844 61.296875 48.089844 Z M 64.265625 49.066406 C 64.640625 49.40625 64.929688 49.804688 65.136719 50.226562 C 68 48.984375 70.78125 47.527344 73.464844 45.847656 C 73.140625 40.167969 72.058594 34.539062 70.203125 29.105469 C 70.085938 29.132812 69.972656 29.148438 69.855469 29.164062 C 69.085938 35.996094 67.222656 42.726562 64.265625 49.066406 Z M 65.136719 53.59375 C 67.570312 55.722656 69.804688 58 71.84375 60.390625 C 72.089844 60.285156 72.355469 60.226562 72.628906 60.210938 C 73.355469 56.046875 73.65625 51.832031 73.539062 47.632812 C 70.949219 49.207031 68.273438 50.582031 65.515625 51.757812 C 65.542969 52.386719 65.417969 53.015625 65.136719 53.59375 Z M 74.964844 44.886719 C 77.578125 43.140625 80.085938 41.183594 82.453125 39.007812 C 79.730469 34.976562 76.496094 31.183594 72.84375 27.832031 C 72.480469 28.148438 72.089844 28.410156 71.675781 28.617188 C 73.472656 33.898438 74.574219 39.363281 74.964844 44.886719 Z M 83.605469 37.921875 C 84.433594 37.128906 85.246094 36.308594 86.03125 35.457031 C 85.3125 34.703125 84.898438 33.652344 85.054688 32.550781 C 81.59375 30.316406 77.96875 28.453125 74.226562 26.980469 C 77.777344 30.300781 80.933594 34 83.605469 37.921875 Z M 69.441406 11.796875 C 69.773438 13.882812 70.003906 15.976562 70.128906 18.070312 C 71.984375 18.394531 73.679688 19.769531 74.375 21.546875 C 76.136719 21.175781 77.910156 20.871094 79.691406 20.644531 C 79.746094 20.355469 79.863281 20.066406 80.03125 19.808594 C 77.207031 16.480469 73.84375 13.609375 70.121094 11.316406 C 69.914062 11.515625 69.691406 11.679688 69.441406 11.796875 Z M 59.375 7.300781 C 62.394531 10.769531 64.980469 14.480469 67.132812 18.371094 C 67.59375 18.1875 68.074219 18.070312 68.570312 18.023438 C 68.449219 16.027344 68.222656 14.046875 67.910156 12.070312 C 66.363281 11.90625 65.226562 10.382812 65.484375 8.859375 C 63.636719 8.023438 61.710938 7.316406 59.707031 6.746094 C 59.605469 6.9375 59.5 7.128906 59.375 7.300781 Z M 49.730469 12.730469 C 55.035156 14.394531 60.175781 16.765625 65.003906 19.835938 L 65.78125 19.125 C 63.6875 15.332031 61.171875 11.722656 58.242188 8.351562 C 56.808594 9.1875 55.09375 8.890625 53.953125 7.914062 Z M 31.144531 8.851562 C 31.261719 9.164062 31.34375 9.488281 31.402344 9.816406 C 37.03125 9.894531 42.660156 10.703125 48.125 12.261719 L 52.984375 6.664062 C 52.800781 6.273438 52.695312 5.851562 52.660156 5.398438 C 45.335938 4.636719 37.933594 5.792969 31.144531 8.851562 Z M 30.945312 13.1875 C 34.101562 14.859375 37.148438 16.804688 40.042969 19.039062 C 41.203125 18.046875 42.710938 17.816406 44.042969 18.1875 C 44.996094 16.625 46.011719 15.089844 47.113281 13.59375 C 41.988281 12.1875 36.726562 11.449219 31.453125 11.375 C 31.394531 11.996094 31.21875 12.609375 30.945312 13.1875 Z M 8.320312 34.878906 L 9.925781 36.027344 C 18.378906 28.925781 28.246094 24.339844 38.519531 22.285156 C 38.539062 21.582031 38.71875 20.878906 39.066406 20.25 C 36.210938 18.046875 33.207031 16.125 30.085938 14.496094 C 27.917969 16.953125 24.082031 17.027344 21.816406 14.652344 C 15.433594 19.902344 10.597656 27.292969 8.320312 34.878906 Z M 38.511719 43.246094 C 38.042969 42.609375 37.816406 41.847656 37.835938 41.085938 C 28.984375 38.917969 19.8125 38.726562 10.921875 40.449219 C 10.332031 42.425781 8.503906 43.644531 6.609375 43.71875 C 6.253906 48.3125 6.664062 52.847656 7.765625 57.171875 C 12.558594 56.34375 15.027344 62.867188 10.804688 65.382812 C 13.320312 70.492188 16.855469 75.042969 21.234375 78.769531 C 21.898438 77.867188 22.882812 77.1875 24.101562 76.941406 C 25.472656 64.878906 30.277344 53.121094 38.511719 43.246094 Z M 29.5625 80.011719 C 41.59375 75.160156 52.355469 66.160156 59.324219 54.9375 C 57.875 53.800781 57.460938 51.796875 58.242188 50.21875 C 53.796875 47.171875 49.066406 44.769531 44.175781 43.007812 C 43.238281 44.519531 41.238281 45.042969 39.695312 44.257812 C 31.714844 53.828125 27.046875 65.199219 25.664062 76.882812 C 27.394531 77.097656 28.976562 78.355469 29.5625 80.011719 Z M 61.933594 55.738281 C 61.527344 55.761719 61.121094 55.730469 60.730469 55.621094 C 53.53125 67.289062 42.355469 76.601562 29.84375 81.574219 C 29.855469 82.511719 29.605469 83.355469 29.167969 84.066406 C 32.617188 85.839844 36.542969 87.1875 40.425781 87.933594 C 41.144531 82.3125 49.605469 83 49.40625 88.671875 C 52.347656 88.585938 55.242188 88.199219 58.058594 87.519531 C 57.785156 85.027344 59.539062 82.46875 62.332031 82.1875 C 64.078125 73.445312 63.9375 64.421875 61.933594 55.738281 Z M 64.183594 82.371094 C 67.578125 76.90625 70.046875 71.039062 71.601562 64.984375 C 70.328125 64.296875 69.898438 62.609375 70.648438 61.402344 C 68.679688 59.082031 66.527344 56.890625 64.175781 54.835938 C 63.945312 55.035156 63.695312 55.199219 63.429688 55.339844 C 65.484375 64.191406 65.648438 73.398438 63.902344 82.304688 C 63.992188 82.3125 64.09375 82.335938 64.183594 82.371094 Z M 78.199219 72.519531 C 76.851562 69.984375 75.320312 67.519531 73.605469 65.160156 C 73.449219 65.210938 73.289062 65.25 73.132812 65.265625 C 71.5625 71.460938 69.042969 77.46875 65.59375 83.066406 L 66.800781 84.339844 C 70.691406 82.410156 74.269531 79.886719 77.398438 76.847656 C 76.601562 75.441406 76.898438 73.585938 78.199219 72.519531 Z M 89.085938 55.714844 C 85.988281 54.605469 85.054688 50.398438 87.554688 48.105469 C 86.355469 45.457031 84.9375 42.847656 83.324219 40.332031 C 80.714844 42.699219 77.953125 44.820312 75.0625 46.691406 C 75.261719 51.328125 74.953125 55.988281 74.144531 60.589844 C 75.394531 61.359375 75.726562 63.082031 74.863281 64.25 C 76.628906 66.683594 78.207031 69.214844 79.589844 71.832031 C 80.277344 71.667969 81.007812 71.722656 81.667969 71.988281 C 85.152344 67.34375 87.804688 61.632812 89.085938 55.714844 Z M 90.03125 46.945312 C 90.03125 43.394531 89.582031 39.910156 88.722656 36.550781 C 88.242188 36.574219 87.769531 36.5 87.347656 36.335938 C 86.421875 37.34375 85.460938 38.3125 84.484375 39.25 C 86.15625 41.839844 87.628906 44.519531 88.878906 47.261719 C 89.25 47.105469 89.640625 46.996094 90.03125 46.945312 Z M 82.183594 58.734375 C 80.039062 58.140625 79.136719 61.410156 81.28125 62.003906 C 83.414062 62.601562 84.324219 59.332031 82.183594 58.734375 Z M 49.871094 56.765625 C 52.636719 57.203125 53.304688 52.992188 50.542969 52.550781 C 47.777344 52.113281 47.105469 56.328125 49.871094 56.765625 Z M 50.25 74.53125 C 46.75 73.5625 45.269531 78.902344 48.777344 79.871094 C 52.28125 80.839844 53.753906 75.5 50.25 74.53125 Z M 33.8125 29.105469 C 30.863281 28.289062 29.613281 32.789062 32.570312 33.609375 C 35.515625 34.421875 36.757812 29.917969 33.8125 29.105469 Z M 33.8125 29.105469 " fill-opacity="1" fill-rule="nonzero"/></g></svg>